<svg width="46" height="46" viewBox="0 0 46 46" fill="none" xmlns="http://www.w3.org/2000/svg">
<rect x="22.627" y="0.372559" width="32" height="32" rx="4" transform="rotate(45 22.627 0.372559)" fill="url(#paint0_linear_274_14138)"/>
<g clip-path="url(#clip0_274_14138)">
<path fill-rule="evenodd" clip-rule="evenodd" d="M30.1693 24.8854C30.4297 25.1458 30.4297 25.5679 30.1693 25.8282L25.4553 30.5423C25.1949 30.8026 24.7728 30.8026 24.5125 30.5423C24.2521 30.2819 24.2521 29.8598 24.5125 29.5994L29.2265 24.8854C29.4869 24.6251 29.909 24.6251 30.1693 24.8854ZM29.2265 22.057C29.4869 22.3173 29.4869 22.7394 29.2265 22.9998L22.6269 29.5994C22.3665 29.8598 21.9444 29.8598 21.6841 29.5994C21.4237 29.3391 21.4237 28.917 21.6841 28.6566L28.2837 22.057C28.5441 21.7966 28.9662 21.7966 29.2265 22.057ZM26.3981 20.1714C26.6585 19.911 26.6585 19.4889 26.3981 19.2286L22.6269 15.4573C22.3665 15.197 21.9444 15.197 21.6841 15.4573L15.0844 22.057C14.8241 22.3173 14.8241 22.7394 15.0844 22.9998L18.8556 26.771C19.116 27.0314 19.5381 27.0314 19.7984 26.771L26.3981 20.1714ZM27.3409 18.2857C28.122 19.0668 28.122 20.3331 27.3409 21.1142L20.7413 27.7138C19.9602 28.4949 18.6939 28.4949 17.9128 27.7138L14.1416 23.9426C13.3605 23.1615 13.3605 21.8952 14.1416 21.1142L20.7413 14.5145C21.5223 13.7335 22.7886 13.7335 23.5697 14.5145L27.3409 18.2857Z" fill="#FAFAFA"/>
</g>
<defs>
<linearGradient id="paint0_linear_274_14138" x1="38.627" y1="0.372559" x2="38.627" y2="32.3726" gradientUnits="userSpaceOnUse">
<stop stop-color="#8640E1"/>
<stop offset="1" stop-color="#BA85FF"/>
</linearGradient>
<clipPath id="clip0_274_14138">
<rect width="16" height="16" fill="white" transform="translate(33.9404 23) rotate(135)"/>
</clipPath>
</defs>
</svg>
